<svg id="Layer_1" data-name="Layer 1" xmlns="http://www.w3.org/2000/svg" viewBox="0 0 1123.58 850"><defs><style>.cls-1{fill:#f2f2f2;}.cls-2{fill:#ccc;}.cls-3{fill:#2f2e41;}.cls-4{fill:#3f3d56;}.cls-5{fill:#1bb1dc;}.cls-6{fill:#e6e6e6;}.cls-7{fill:#fff;}.cls-8{fill:#e2e2e2;}.cls-14,.cls-9{opacity:0.1;}.cls-11,.cls-14,.cls-9{isolation:isolate;}.cls-10{fill:#a8a8a8;}.cls-11{opacity:0.2;}.cls-12{fill:#ffb9b9;}.cls-13{fill:#d0cde1;}.cls-14,.cls-15{fill:#ff6584;}.cls-16{fill:#a0616a;}.cls-17{fill:#a1df57;}</style></defs><title>banner</title><path class="cls-1" d="M962.77,340.81C913.58,147.39,743.62,7.77,544.12,2.17c-105.46-3-216.45,32-297.25,154.42-144.44,218.82,8.88,370,115.77,441.87A669,669,0,0,1,500.89,722.72c72.2,85.68,211.1,192.15,376.52,25.33C997.31,627.14,995.54,469.65,962.77,340.81Z" transform="translate(1.29 -2)"/><path class="cls-2" d="M559.59,576A150.52,150.52,0,1,1,666,532,150.51,150.51,0,0,1,559.59,576Zm0-299.87c-82.36,0-149.36,67-149.36,149.35s67,149.36,149.36,149.36S709,507.88,709,425.52s-67-149.35-149.36-149.35Z" transform="translate(1.29 -2)"/><rect class="cls-3" x="503.91" y="444.97" width="112.86" height="151.63"/><rect class="cls-4" x="484.52" y="440.34" width="151.63" height="60.19"/><rect class="cls-4" x="484.52" y="507.48" width="151.63" height="60.19"/><rect class="cls-4" x="484.52" y="574.62" width="151.63" height="60.19"/><rect class="cls-5" x="484.52" y="465.87" width="151.63" height="9.26"/><rect class="cls-5" x="484.52" y="533" width="151.63" height="9.26"/><rect class="cls-5" x="484.52" y="600.14" width="151.63" height="9.26"/><circle class="cls-5" cx="606.64" cy="449.03" r="3.47"/><circle class="cls-5" cx="618.79" cy="449.03" r="3.47"/><circle class="cls-5" cx="630.95" cy="449.03" r="3.47"/><circle class="cls-5" cx="606.64" cy="515" r="3.47"/><circle class="cls-5" cx="618.79" cy="515" r="3.47"/><circle class="cls-5" cx="630.95" cy="515" r="3.47"/><circle class="cls-5" cx="606.64" cy="580.98" r="3.47"/><circle class="cls-5" cx="618.79" cy="580.98" r="3.47"/><circle class="cls-5" cx="630.95" cy="580.98" r="3.47"/><path class="cls-6" d="M442.07,382.88V490.53a8.49,8.49,0,0,1-8.49,8.49H391.74a8.49,8.49,0,0,1-8.49-8.49V382.88a8.49,8.49,0,0,1,8.49-8.49h5.08a4,4,0,0,0,2.22,5.26,4,4,0,0,0,1.52.3h23.85a4,4,0,0,0,4-4,4,4,0,0,0-.3-1.52h5.44A8.49,8.49,0,0,1,442.07,382.88Z" transform="translate(1.29 -2)"/><rect class="cls-7" x="387.33" y="392.95" width="53.25" height="74.08"/><rect class="cls-6" x="402.44" y="443.89" width="21.25" height="1.21"/><rect class="cls-5" x="402.42" y="448.35" width="32.88" height="1.21"/><rect class="cls-6" x="402.42" y="452.55" width="25.81" height="1.21"/><rect class="cls-6" x="402.42" y="456.75" width="15.18" height="1.21"/><rect class="cls-6" x="402.42" y="460.95" width="22.77" height="1.21"/><rect class="cls-6" x="392.81" y="443.54" width="2.43" height="2.43"/><rect class="cls-5" x="392.81" y="447.74" width="2.43" height="2.43"/><rect class="cls-6" x="392.81" y="451.94" width="2.43" height="2.43"/><rect class="cls-6" x="392.81" y="456.14" width="2.43" height="2.43"/><rect class="cls-6" x="392.81" y="460.34" width="2.43" height="2.43"/><rect class="cls-6" x="403.35" y="402.21" width="21.41" height="21.41"/><rect class="cls-6" x="489.22" y="224.08" width="142.31" height="91.14"/><rect class="cls-7" x="499.94" y="249.58" width="117.99" height="44.58"/><rect class="cls-6" x="521.44" y="257.3" width="28.32" height="1.62"/><rect class="cls-5" x="521.41" y="263.24" width="43.82" height="1.62"/><rect class="cls-6" x="521.41" y="268.84" width="34.38" height="1.62"/><rect class="cls-6" x="521.41" y="274.44" width="20.23" height="1.62"/><rect class="cls-6" x="521.41" y="280.04" width="30.34" height="1.62"/><rect class="cls-6" x="508.6" y="256.84" width="3.24" height="3.24"/><rect class="cls-5" x="508.6" y="262.44" width="3.24" height="3.24"/><rect class="cls-6" x="508.6" y="268.03" width="3.24" height="3.24"/><rect class="cls-6" x="508.6" y="273.63" width="3.24" height="3.24"/><rect class="cls-6" x="508.6" y="279.23" width="3.24" height="3.24"/><rect class="cls-6" x="583.17" y="255.16" width="28.97" height="28.97"/><rect class="cls-5" x="489.15" y="224" width="142.31" height="6.05"/><circle class="cls-7" cx="493.65" cy="227.09" r="1.21"/><circle class="cls-7" cx="497.9" cy="227.09" r="1.21"/><circle class="cls-7" cx="502.15" cy="227.09" r="1.21"/><rect class="cls-6" x="692.09" y="394.62" width="34.73" height="17.94"/><rect class="cls-6" x="692.09" y="458.86" width="34.73" height="17.94"/><circle class="cls-6" cx="709.45" cy="435.71" r="28.94"/><circle class="cls-7" cx="709.45" cy="435.71" r="22.57"/><rect class="cls-8" x="702.06" y="429.53" width="17.51" height="1"/><rect class="cls-5" x="702.05" y="433.2" width="27.09" height="1"/><rect class="cls-8" x="702.05" y="436.66" width="21.26" height="1"/><rect class="cls-8" x="702.05" y="440.12" width="12.5" height="1"/><rect class="cls-8" x="702.05" y="443.58" width="18.76" height="1"/><rect class="cls-8" x="694.12" y="429.24" width="2" height="2"/><rect class="cls-5" x="694.12" y="432.7" width="2" height="2"/><rect class="cls-8" x="694.12" y="436.16" width="2" height="2"/><rect class="cls-8" x="694.12" y="439.62" width="2" height="2"/><rect class="cls-8" x="694.12" y="443.08" width="2" height="2"/><polygon class="cls-9" points="743.13 520.67 844.75 419.36 743.13 318.06 774.11 287.18 906.71 419.36 774.11 551.55 743.13 520.67 743.13 520.67"/><path class="cls-9" d="M451.65,428.59H493V387.28H451.65ZM659,387.28H617.71v41.31H659ZM534.68,428.59H576V387.28H534.68Z" transform="translate(1.29 -2)"/><polygon class="cls-9" points="396.97 519.64 295.25 418.33 396.87 317.02 365.89 286.14 233.39 418.33 365.99 550.52 396.97 519.64"/><path class="cls-4" d="M1122.29,775.58c0,17.11-251.52,76.42-561.79,76.42S-1.29,792.69-1.29,775.58,250.23,790,560.5,790,1122.29,758.47,1122.29,775.58Z" transform="translate(1.29 -2)"/><path class="cls-9" d="M1122.29,775.58c0,17.11-251.52,76.42-561.79,76.42S-1.29,792.69-1.29,775.58,250.23,790,560.5,790,1122.29,758.47,1122.29,775.58Z" transform="translate(1.29 -2)"/><ellipse class="cls-4" cx="561.79" cy="773.58" rx="561.79" ry="30.98"/><path class="cls-4" d="M652.1,626.52c0,66.11,41.47,119.6,92.72,119.6" transform="translate(1.29 -2)"/><path class="cls-5" d="M744.82,746.12c0-66.85,46.29-120.94,103.48-120.94" transform="translate(1.29 -2)"/><path class="cls-5" d="M685.69,632.51c0,62.8,26.45,113.61,59.13,113.61" transform="translate(1.29 -2)"/><path class="cls-4" d="M744.82,746.12c0-85.42,53.5-154.54,119.61-154.54" transform="translate(1.29 -2)"/><path class="cls-10" d="M725.32,747s13.15-.41,17.11-3.23,20.23-6.19,21.21-1.67,19.76,22.51,4.92,22.63-34.5-2.31-38.46-4.72S725.32,747,725.32,747Z" transform="translate(1.29 -2)"/><path class="cls-11" d="M768.82,763.13c-14.84.12-34.49-2.31-38.45-4.72-3-1.84-4.21-8.42-4.61-11.46l-.44,0s.83,10.6,4.78,13,23.61,4.84,38.46,4.72c4.28,0,5.76-1.55,5.68-3.81C773.65,762.25,772,763.1,768.82,763.13Z" transform="translate(1.29 -2)"/><path class="cls-12" d="M892.55,394.06s-31.8-24.14-34.21-15.29,23.33,29,23.33,29Z" transform="translate(1.29 -2)"/><path class="cls-9" d="M892.55,394.06s-31.8-24.14-34.21-15.29,23.33,29,23.33,29Z" transform="translate(1.29 -2)"/><path class="cls-13" d="M997.51,317.63S959.7,385.2,958.9,394.85s-.81,10.46-4,9.66-47.47-5.63-51.49-4-12.07-9.66-12.07-9.66S876,406.12,879.26,409.34s12.87,4.82,14.48,8.84,4,8.05,11.26,7.24,56.31,12.88,62.75,10.46,8-6.43,11.26-6.43,9.65-3.22,9.65-4S1011.19,382,1011.19,382,1037.74,324.06,997.51,317.63Z" transform="translate(1.29 -2)"/><path class="cls-14" d="M997.51,317.63S959.7,385.2,958.9,394.85s-.81,10.46-4,9.66-47.47-5.63-51.49-4-12.07-9.66-12.07-9.66S876,406.12,879.26,409.34s12.87,4.82,14.48,8.84,4,8.05,11.26,7.24,56.31,12.88,62.75,10.46,8-6.43,11.26-6.43,9.65-3.22,9.65-4S1011.19,382,1011.19,382,1037.74,324.06,997.51,317.63Z" transform="translate(1.29 -2)"/><path class="cls-3" d="M942.66,273.08a66.17,66.17,0,0,0,.2,12.82c1.22,9.25,5.48,18.88,1.46,27.51-1.46,3.13-3.93,5.86-5.28,9-2.85,6.71-.26,14.15-.65,21.29-.5,9.22-6.37,18.11-15.29,23.16,15.25.48,29.74-7.06,39.34-17.33s14.93-23,18.94-35.76a77.72,77.72,0,0,0,3.93-18.51,26.72,26.72,0,0,0-1.25-10.73,40.69,40.69,0,0,0-5.52-9.42c-2.4-3.38-4.87-6.82-8.41-9.33-4.37-3.1-12.78-6.21-18.57-5.76C944.45,260.61,943,268.15,942.66,273.08Z" transform="translate(1.29 -2)"/><path class="cls-12" d="M966.14,298.32s8.85,31.37,1.61,40.22,43.44-4,43.44-4-24.94-24.94-12.87-41Z" transform="translate(1.29 -2)"/><path class="cls-9" d="M966.14,298.32s8.85,31.37,1.61,40.22,43.44-4,43.44-4-24.94-24.94-12.87-41Z" transform="translate(1.29 -2)"/><polygon class="cls-5" points="743.13 501.05 844.75 399.74 743.13 298.43 774.11 267.56 906.71 399.74 774.11 531.93 743.13 501.05 743.13 501.05"/><polygon class="cls-12" points="938.47 714.64 938.47 737.97 950.53 752.45 960.99 747.62 957.77 713.84 938.47 714.64"/><path class="cls-3" d="M942,738.36s-3.21-11.26-8.85-3.22-11.26,25.75-14.48,26.55-25.74,25.74-3.21,25.74S945.22,777,945.22,777s22.53-8.85,22.53-10.46-3.22-31.38-4.83-31.38-2.41,5.63-6.44,5.63S942,738.36,942,738.36Z" transform="translate(1.29 -2)"/><polygon class="cls-12" points="992.37 718.66 991.56 740.38 1010.87 748.43 1010.87 717.05 992.37 718.66"/><path class="cls-3" d="M1012,742.38s-10.46-11.26-16.09-8.85a56.43,56.43,0,0,0-8,4S984.64,748,983,756.86s-2.41,12.88-4,16.09-3.22,15.29,12.87,16.9,20.92-7.24,20.92-7.24l4-20.92S1015.21,742.38,1012,742.38Z" transform="translate(1.29 -2)"/><path class="cls-3" d="M947.64,489s-23.33,52.29-20.12,99.75c0,0-8,18.5-3.21,47.46s11.26,86.89,11.26,86.89,21.72,2.41,23.33-1.61c0,0,1.61-40.23,3.22-41.83s-.81-38.62-3.22-45.86,22.52-78.84,22.52-78.84L975,465.65Z" transform="translate(1.29 -2)"/><path class="cls-9" d="M947.64,489s-23.33,52.29-20.12,99.75c0,0-8,18.5-3.21,47.46s11.26,86.89,11.26,86.89,21.72,2.41,23.33-1.61c0,0,1.61-40.23,3.22-41.83s-.81-38.62-3.22-45.86,22.52-78.84,22.52-78.84L975,465.65Z" transform="translate(1.29 -2)"/><path class="cls-3" d="M941.2,485.76l15.28,33s7.24,74.82,11.27,84.47c0,0,1.61,27.35,8.85,36.2s12.87,86.88,12.87,86.88,20.11,5.64,21.72,0,6.43-44.24,6.43-44.24,1.61-33-7.24-54.7,10.46-99.76,10.46-99.76,20.11-37.81-8.85-68.38Z" transform="translate(1.29 -2)"/><circle class="cls-12" cx="985.13" cy="272.99" r="32.98"/><path class="cls-15" d="M1014.41,324.87s-34.6,0-39.42,4a6.42,6.42,0,0,1-8.85,0s-12.07.8-15.29,10.46S938,361.87,938,361.87s-14.48,10.46-6.43,37.81,1.6,71.6,1.6,71.6-6.43,9.65,0,13.67,8.85,5.64,8.05,8.85,73.21-26.54,73.21-32.17-1.61-10.46,0-12.88,3.21-6.43,1.6-10.45,1.61-4.83.81-8.85,4-33.79,7.24-46.66S1026.47,325.67,1014.41,324.87Z" transform="translate(1.29 -2)"/><path class="cls-12" d="M892.55,403.71s-31.8-24.14-34.21-15.29,23.33,29,23.33,29Z" transform="translate(1.29 -2)"/><path class="cls-15" d="M997.51,328.89s-37.81,67.57-38.61,77.23-.81,10.46-4,9.65-47.47-5.63-51.49-4-12.07-9.66-12.07-9.66S876,417.38,879.26,420.6s12.87,4.82,14.48,8.85,4,8,11.26,7.24,56.31,12.87,62.75,10.45,8-6.43,11.26-6.43,9.65-3.22,9.65-4,22.53-43.44,22.53-43.44S1037.74,335.32,997.51,328.89Z" transform="translate(1.29 -2)"/><path class="cls-3" d="M967.5,296.06c-.45-3.26-2.13-6.23-3-9.41a19.58,19.58,0,0,1,2.23-15.18c4.73-7.64,14-11,20.5-17.25.13,3.17,2.33,5.88,4.77,7.92s5.22,3.7,7.28,6.11a24,24,0,0,1,4.25,8.6,30.21,30.21,0,0,1,1.67,11.27,14.15,14.15,0,0,1-4.88,10c-2.42,1.91-5.79,3-7,5.85a9.94,9.94,0,0,0-.39,4.4c.55,8.86,1.07,17.86-1,26.48s-7.19,16.95-15.19,20.77c6.58.47,13.29.92,19.67-.74s12.49-5.84,14.68-12c1.09-3.07,1.19-6.48,2.73-9.34,3.91-7.25,14.68-7.58,20-13.88,2.12-2.53,3.14-5.78,3.9-9,4.47-18.87,1.33-38.89-5.48-57-2.34-6.26-5.26-12.56-10.29-17-4.28-3.74-9.75-5.8-15.15-7.56-7.89-2.57-16-4.68-24.31-5a30.85,30.85,0,0,0-10.68,1.25,31.57,31.57,0,0,0-9.38,5.35c-13,10.11-21.84,26.26-20.67,42.68.71,9.93,4.92,19.34,10.33,27.7,1.89,2.92,6.36,9.16,10.51,7.32C966.39,306.77,968,299.59,967.5,296.06Z" transform="translate(1.29 -2)"/><path class="cls-5" d="M451.65,409H493V367.66H451.65ZM659,367.66H617.71V409H659ZM534.68,409H576V367.66H534.68Z" transform="translate(1.29 -2)"/><ellipse class="cls-3" cx="212.95" cy="215.45" rx="34.76" ry="27.11"/><path class="cls-16" d="M217.57,404.1s31.28,2.08,36.84-2.09,29.2,5.56,31.28,11.13-33.36,6.25-38.93,6.25-32,8.34-32,8.34Z" transform="translate(1.29 -2)"/><path class="cls-3" d="M153.15,727.92s-14.58,36.76-7,41.2,87.47,1.26,87.47,1.26,13.31-8.24-1.9-13.94c0,0-12.68-.64-20.92-5.71s-17.74-14.57-17.74-14.57-.64-13.95-5.71-10.78a13,13,0,0,0-5.7,8.87Z" transform="translate(1.29 -2)"/><path class="cls-9" d="M153.15,727.92s-14.58,36.76-7,41.2,87.47,1.26,87.47,1.26,13.31-8.24-1.9-13.94c0,0-12.68-.64-20.92-5.71s-17.74-14.57-17.74-14.57-.64-13.95-5.71-10.78a13,13,0,0,0-5.7,8.87Z" transform="translate(1.29 -2)"/><polygon class="cls-5" points="396.97 500.02 295.25 398.71 396.87 297.4 365.89 266.52 233.39 398.71 365.99 530.89 396.97 500.02"/><path class="cls-3" d="M130.67,739.16s-16,40.32-7.64,45.19S219,785.74,219,785.74s14.6-9-2.09-15.3c0,0-13.9-.69-22.94-6.25s-19.46-16-19.46-16-.7-15.29-6.26-11.82a14.3,14.3,0,0,0-6.25,9.73Z" transform="translate(1.29 -2)"/><path class="cls-3" d="M212.7,483.35,203,570.94s-3.48,41.7-13.9,50.74c0,0,0,13.21-3.48,17.38L180.72,694s7,20.16,6.26,23.63,2.78,14.6,2.09,16-33.37,0-33.37,0l7-111.92L184.2,466Z" transform="translate(1.29 -2)"/><path class="cls-9" d="M212.7,483.35,203,570.94s-3.48,41.7-13.9,50.74c0,0,0,13.21-3.48,17.38L180.72,694s7,20.16,6.26,23.63,2.78,14.6,2.09,16-33.37,0-33.37,0l7-111.92L184.2,466Z" transform="translate(1.29 -2)"/><path class="cls-3" d="M195.32,480.57s-7.64,71.6-11.12,86.89A197,197,0,0,0,180,598.05s-.7,22.24-6.95,28.5a18.76,18.76,0,0,0-5.56,13.9s-6.26,70.21-2.78,78.55,6.95,15.3,3.47,20.86-41.71,5.56-41.71,1.39,0-7.65-2.08-9.73,0-15.3,0-15.3-8.34-61.87-.7-79.94,11.12-67.43,11.12-67.43-5.56-56.31-12.51-65.34,1.39-41,1.39-41Z" transform="translate(1.29 -2)"/><path class="cls-16" d="M175.75,258.21c.81,1.85,2.74,2.87,4.5,3.84,10.21,5.62,18.75,13.78,27.17,21.83a31.86,31.86,0,0,1,1.27-21.56c1-2.33,2.32-4.83,1.6-7.26-.53-1.79-2-3.08-3.52-4.22A110.19,110.19,0,0,0,196,243.5c-2.61-1.55-8-5.7-11-5.25-.15,4-.23,7.65-2,11.42C182.65,250.56,176.06,258.92,175.75,258.21Z" transform="translate(1.29 -2)"/><circle class="cls-16" cx="212.6" cy="236.65" r="28.5"/><path class="cls-17" d="M212.7,306.08s4.87-24.33-9-32.67-29.89-18.07-29.89-18.07-4.86-.7-7,9.73c0,0-39.62,7.64-43.79,45.18s2.78,92.46,2.78,92.46-6.26,48-13.91,73.68c0,0-6.25,5.57,21.55-2.78s76.47,23.64,76.47,23.64,4.87-4.87,4.87-8.34,5.56-23.64,5.56-23.64,4.86-85.5,7-95.23S219,307.47,212.7,306.08Z" transform="translate(1.29 -2)"/><path class="cls-3" d="M204.59,241.59a11.94,11.94,0,0,1,5.59-1.49,10.61,10.61,0,0,0,5.53-1.65c2.7-2.06,2.89-6.06,4.86-8.82,2.85-4,8.54-4.49,13.45-4.29,3,.13,6.24.31,8.77-1.32s3.77-4.81,4.65-7.77c1-3.5,1.7-7.77-.86-10.37-1.78-1.8-4.6-2.16-6.58-3.74s-2.89-4.31-4-6.69a18,18,0,0,0-5.82-7.29c-3.73-2.6-8.5-3.18-13-3.13s-9.11.65-13.62.09c-3.7-.46-7.39-1.69-11.07-1.14-4.69.69-8.58,4.23-10.89,8.38s-3.31,8.87-4.27,13.52l-2.62,12.64c-.81,3.92-1.62,7.94-1,11.89,1.3,8.2,8.55,14.71,9.05,23a14.11,14.11,0,0,1,8.62-10.25,2.71,2.71,0,0,1,1.75-.21c.72.23,1.14,1,1.6,1.55,1.19,1.59,4.93,4,7,2.87C203.63,246.36,202.21,243.21,204.59,241.59Z" transform="translate(1.29 -2)"/><path class="cls-16" d="M132.76,371.43s-4.87,30.58,15.29,27.8c0,0,10.43-1.39,11.82,0s52.83-7.64,59.78-15.29c0,0,8.34-2.78,12.52,1.39s45.88,8.34,33.36-4.17-32-15.29-32-15.29l-26.42,1.39s-13.9,4.17-22.24,0-32-2.78-32-2.78Z" transform="translate(1.29 -2)"/><path class="cls-17" d="M161.26,274.8S130,278.28,130,323.46v57.7s17.38-7.65,20.85-7,17.38-9,17.38-9,16-37.54,14.6-48S182.11,276.19,161.26,274.8Z" transform="translate(1.29 -2)"/><ellipse class="cls-3" cx="212.6" cy="218.93" rx="26.76" ry="13.9"/><ellipse class="cls-3" cx="187.58" cy="221.36" rx="9.38" ry="23.29"/></svg>