<svg id="Layer_1" data-name="Layer 1" xmlns="http://www.w3.org/2000/svg" viewBox="0 0 462.68 685.02"><defs><style>.cls-1{fill:#f2f2f2;}.cls-2{fill:#3f3d56;}.cls-3,.cls-4,.cls-5{fill:#1bb1dc;}.cls-3{opacity:0.3;}.cls-3,.cls-5{isolation:isolate;}.cls-5{opacity:0.4;}.cls-6{fill:#2f2e41;}.cls-7{fill:#ffb8b8;}.cls-8{fill:#945b79;}.cls-9{font-size:17px;fill:#eaeaea;font-family:MyriadPro-Regular, Myriad Pro;}.cls-10{letter-spacing:0em;}</style></defs><title>why</title><polygon class="cls-1" points="83.03 0 48.46 67.44 55.44 67.44 55.44 122.43 20.26 122.43 0 161.95 251.09 290.69 334.12 128.73 83.03 0"/><rect class="cls-2" x="77.73" y="43.87" width="384.95" height="193.13"/><rect class="cls-3" x="131.74" y="143.26" width="284.13" height="0.65"/><rect class="cls-3" x="132.07" y="159.63" width="284.13" height="0.65"/><rect class="cls-3" x="132.07" y="192.36" width="284.13" height="0.65"/><rect class="cls-3" x="132.07" y="206.77" width="284.13" height="0.65"/><rect class="cls-3" x="132.07" y="176" width="284.13" height="0.65"/><polygon class="cls-4" points="139.95 207.24 139.05 206.29 181.34 165.98 218.62 192.8 248.77 159.38 261.99 170.61 297.95 149.03 337.9 175.88 400.59 140.22 401.24 141.36 337.84 177.42 297.91 150.59 261.86 172.22 248.89 161.2 218.81 194.55 181.46 167.68 139.95 207.24"/><rect class="cls-2" x="8.3" y="75.29" width="41.9" height="41.9"/><ellipse class="cls-2" cx="198.68" cy="668.02" rx="186" ry="17"/><path class="cls-2" d="M29.76,634.85c4.7,17.37,20.8,28.13,20.8,28.13S59,645.57,54.33,628.2s-20.8-28.14-20.8-28.14S25.06,617.47,29.76,634.85Z" transform="translate(-1 -0.99)"/><path class="cls-4" d="M36.66,631.11C49.56,643.67,51.13,663,51.13,663S31.8,661.91,18.9,649.36,4.43,617.5,4.43,617.5,23.77,618.56,36.66,631.11Z" transform="translate(-1 -0.99)"/><circle class="cls-5" cx="427.18" cy="33.52" r="33.5"/><circle class="cls-5" cx="306.18" cy="538.52" r="12.5"/><circle class="cls-5" cx="93.18" cy="603.52" r="9.5"/><circle class="cls-5" cx="61.18" cy="477.52" r="12.5"/><circle class="cls-4" cx="240.18" cy="211.52" r="13"/><path class="cls-6" d="M156.71,448l-11,1.23s-4.89,22,0,51.43,11,58.77,11,58.77,4.9,95.51,7.35,96.74,24.49,8.57,25.72,1.22S191,482.26,191,482.26l17.14,80.82s2.45,101.63,7.35,101.63,20.82-1.22,20.82-9.8S240,533.69,240,533.69s-1.22-83.27-6.12-85.72S156.71,448,156.71,448Z" transform="translate(-1 -0.99)"/><path class="cls-6" d="M166.51,652.47s-11-1.23-13.47,0-6.12,9.79,0,14.69,22,12.25,26.94,12.25a25.61,25.61,0,0,0,9.8-2.45l-2.45-20.82Z" transform="translate(-1 -0.99)"/><path class="cls-6" d="M215.49,658.59l1.22,17.14s15.92,2.45,17.15,0,13.47-8.57,14.69-9.79,2.45-14.7-4.9-15.92-9.79,2.45-9.79,2.45Z" transform="translate(-1 -0.99)"/><path class="cls-7" d="M112.63,345.12S83.24,373.28,86.92,388,120,445.53,120,445.53s28.16,14.69,31.84,0-19.6-11-19.6-11l-18.36-44.08L134.67,361Z" transform="translate(-1 -0.99)"/><path class="cls-7" d="M244,302.27s26.77-17.22,26.15-29-16.76-49.12-16.76-49.12-12.63-26.25-17.65-15.53,6.6,22.15,6.6,22.15l7.5,36.58-20.38,19.44Z" transform="translate(-1 -0.99)"/><circle class="cls-7" cx="176.53" cy="254.74" r="22.04"/><path class="cls-7" d="M166.51,269.2l3.67,23.26,26.94-4.9s-1.22-23.26-1.22-25.71S166.51,269.2,166.51,269.2Z" transform="translate(-1 -0.99)"/><path class="cls-8" d="M165.29,292.46s30.61-7.34,34.28-4.9,22,4.9,22,4.9l20.82,31.84-6.12,40.41s-1.23,64.9,1.22,75.92,15.92,12.24-12.24,14.69-33.07-1.22-52.66,3.67-35.51-2.44-30.61-7.34,13.47-83.27,3.67-90.62-13.47-45.3-13.47-45.3S165.29,298.59,165.29,292.46Z" transform="translate(-1 -0.99)"/><path class="cls-8" d="M217.94,296.14l3.67-3.68,7.35-7.34s23.88,10.4,22.65,14.08-9.18,25.1-9.18,25.1l-11,3.67Z" transform="translate(-1 -0.99)"/><path class="cls-8" d="M146.92,318.18l-14.7-2.45s-11,12.24-14.69,17.14-11,17.14-11,17.14l25.71,18.37,19.6-20.81Z" transform="translate(-1 -0.99)"/><path class="cls-6" d="M185.22,229l-.22-1.76a13.74,13.74,0,0,0-4.41.69,7.1,7.1,0,0,1,.27-3.17,14.17,14.17,0,0,0-4.09,1.77l-.89-3.22-12.24,6c-4.39,2.17-9,4.55-11.54,8.76-2.8,4.68-2.31,10.71-.39,15.83s5.09,9.64,7.64,14.47a36.21,36.21,0,0,0,3.48,5.91c4.62,5.76,13.61,6.92,20.12,3.45a11.67,11.67,0,0,0,5.58-5.74,37,37,0,0,0,1.12-4.76c.8-3.29,1.74-10.08,4.41-12.16,1.18-.92,3.51,2.12,4.48,1,2.51-2.9,2-7.37.43-10.88a80.71,80.71,0,0,0-5.22-10.18C192.9,233.73,185.2,228.81,185.22,229Z" transform="translate(-1 -0.99)"/><text class="cls-9" transform="translate(196.04 142.11)"><tspan class="cls-10">C</tspan><tspan x="9.93" y="0">AREER</tspan></text></svg>