<svg height="511pt" viewBox="1 -44 511.99998 511" width="511pt" xmlns="http://www.w3.org/2000/svg"><path d="m205.3125 412.675781v-84.070312h101.625v84.070312" fill="#919196"/><path d="m310.3125 53.308594h191.5625v275.296875h-491.75v-275.296875h195.386719" fill="#00d7df"/><path d="m257.683594 158.695312c-29.695313 0-53.773438-24.074218-53.773438-53.773437v-40.523437c0-29.699219 24.078125-53.773438 53.773438-53.773438 29.699218 0 53.773437 24.074219 53.773437 53.773438v40.523437c0 29.699219-24.074219 53.773437-53.773437 53.773437zm0 0" fill="#f2d1a5"/><path d="m123.277344 328.605469v-58.019531c0-27.980469 8.058594-55.363282 23.214844-78.882813 13.285156-20.617187 36.132812-33.074219 60.660156-33.074219h99.726562c24.527344 0 47.375 12.457032 60.660156 33.074219 15.15625 23.519531 23.214844 50.902344 23.214844 78.882813v58.019531zm0 0" fill="#f5f0eb"/><path d="m259.894531 10.625c-30.914062 0-55.972656 25.058594-55.972656 55.96875v4.375c0 2.007812 1.359375 3.761719 3.304687 4.257812 13.753907 3.511719 29.230469 5.921876 38.585938 2.472657 19.851562-7.316407 36.484375-15.492188 52.449219-11.738281 2.78125.65625 6.609375-.601563 10.972656-3.179688 1.410156-.832031 2.214844-2.410156 2.105469-4.042969-1.78125-26.867187-24.125-48.113281-51.445313-48.113281zm0 0" fill="#919196"/><path d="m501.875 43.183594h-183.300781c-8.070313-24.839844-31.488281-42.683594-58.683594-42.683594-.371094 0-.734375.023438-1.101563.027344-.371093-.003906-.734374-.027344-1.105468-.027344-27.796875 0-51.492188 17.851562-60.261719 42.683594h-187.296875c-5.59375 0-10.125 4.535156-10.125 10.125v275.296875c0 5.589843 4.53125 10.125 10.125 10.125h185.0625v63.875h-29.410156c-5.589844 0-10.125 4.535156-10.125 10.125 0 5.589843 4.535156 10.125 10.125 10.125h175.496094c5.589843 0 10.125-4.535157 10.125-10.125 0-5.589844-4.535157-10.125-10.125-10.125h-24.210938v-63.875h184.8125c5.59375 0 10.125-4.535157 10.125-10.125v-275.296875c0-5.589844-4.53125-10.125-10.125-10.125zm-241.8125 105.320312h-4.757812c-22.964844-1.238281-41.269532-20.308594-41.269532-43.578125v-17.753906c7.683594 1.546875 14.4375 2.332031 20.296875 2.332031 5.84375 0 10.820313-.769531 14.980469-2.300781 3.089844-1.140625 6.09375-2.296875 8.992188-3.410156 14.566406-5.601563 27.140624-10.441407 37.636718-7.972657 1.722656.40625 3.515625.53125 5.390625.378907v28.726562c0 23.269531-18.304687 42.339844-41.269531 43.578125zm40.417969-92.695312c-.21875.070312-.40625.128906-.527344.15625-16.347656-3.601563-32.175781 2.484375-48.917969 8.925781-2.839844 1.09375-5.746094 2.210937-8.726562 3.308594-2.480469.914062-10.015625 2.445312-28.261719-1.734375.070313-24.851563 20.015625-45.097656 44.742187-45.6875 20.632813.515625 37.757813 15.410156 41.691407 35.03125zm-280.230469 7.625h173.5625c-.003906.320312-.023438.640625-.023438.964844v40.527343c0 16.832031 6.550782 32.15625 17.230469 43.578125h-3.863281c-28.097656 0-53.953125 14.101563-69.175781 37.714844-16.242188 25.207031-24.828125 54.378906-24.828125 84.367188v47.894531h-92.902344zm276.566406 339.171875h-81.378906v-63.875h81.378906zm43.160156-84.125v-70c0-5.589844-4.53125-10.125-10.125-10.125-5.589843 0-10.121093 4.535156-10.121093 10.125v70h-124.089844v-70c0-5.589844-4.53125-10.125-10.125-10.125-5.589844 0-10.125 4.535156-10.125 10.125v70h-41.988281v-47.894531c0-26.089844 7.46875-51.46875 21.597656-73.398438 11.476562-17.804688 30.972656-28.433594 52.152344-28.433594h40.40625v39.519532c0 5.589843 4.535156 10.125 10.125 10.125 5.59375 0 10.125-4.535157 10.125-10.125v-39.519532h39.070312c21.183594 0 40.679688 10.628906 52.152344 28.433594 14.132812 21.929688 21.601562 47.308594 21.601562 73.398438v47.894531zm151.773438 0h-90.867188v-47.894531c0-29.988282-8.585937-59.160157-24.832031-84.367188-15.21875-23.613281-41.074219-37.714844-69.171875-37.714844h-2.527344c10.675782-11.421875 17.230469-26.746094 17.230469-43.578125v-40.527343c0-.324219-.019531-.644532-.023437-.964844h170.191406zm0 0"/><path d="m120.679688 95.839844c0-5.59375-4.53125-10.125-10.125-10.125h-49.410157c-5.589843 0-10.125 4.53125-10.125 10.125v51.757812c0 5.589844 4.535157 10.125 10.125 10.125 5.59375 0 10.125-4.535156 10.125-10.125v-41.632812h39.285157c5.59375 0 10.125-4.535156 10.125-10.125zm0 0"/><path d="m144.390625 103.796875.265625.203125c1.832031 1.390625 3.984375 2.066406 6.121094 2.066406 3.054687 0 6.074218-1.378906 8.066406-3.996094 3.382812-4.449218 2.519531-10.800781-1.929688-14.1875l-.265624-.203124c-4.453126-3.386719-10.800782-2.519532-14.1875 1.929687-3.386719 4.449219-2.523438 10.800781 1.929687 14.1875zm0 0"/><path d="m264.082031 240.523438-.265625-.203126c-4.453125-3.382812-10.804687-2.519531-14.1875 1.929688-3.386718 4.449219-2.523437 10.800781 1.925782 14.1875l.269531.203125c1.832031 1.390625 3.984375 2.066406 6.121093 2.066406 3.054688 0 6.074219-1.375 8.066407-3.996093 3.382812-4.449219 2.519531-10.800782-1.929688-14.1875zm0 0"/></svg>